<svg xmlns="http://www.w3.org/2000/svg" xmlns:svg="http://www.w3.org/2000/svg" id="svg2" width="134.625" height="124" version="1.1"><metadata id="metadata7"/><g id="layer1" transform="translate(0,-928.375)"><path style="fill:#000;fill-rule:evenodd;stroke:none" id="rect10" d="m 0,928.375 0,124 134.625,0 0,-124 -134.625,0 z m 6.96875,6.34375 2.84375,0 c 0.981496,0 1.75,0.79975 1.75,1.78125 l 0,6.375 c 0,0.9815 -0.768504,1.78125 -1.75,1.78125 l -2.84375,0 c -0.9814961,0 -1.78125,-0.79975 -1.78125,-1.78125 l 0,-6.375 c 0,-0.9815 0.7997539,-1.78125 1.78125,-1.78125 z m 16.84375,0 2.8125,0 c 0.981496,0 1.78125,0.79975 1.78125,1.78125 l 0,6.375 c 0,0.9815 -0.799754,1.78125 -1.78125,1.78125 l -2.8125,0 c -0.981496,0 -1.78125,-0.79975 -1.78125,-1.78125 l 0,-6.375 c 0,-0.9815 0.799754,-1.78125 1.78125,-1.78125 z m 16.8125,0 2.84375,0 c 0.981496,0 1.78125,0.79975 1.78125,1.78125 l 0,6.375 c 0,0.9815 -0.799754,1.78125 -1.78125,1.78125 l -2.84375,0 c -0.981496,0 -1.75,-0.79975 -1.75,-1.78125 l 0,-6.375 c 0,-0.9815 0.768504,-1.78125 1.75,-1.78125 z m 16.84375,0 2.84375,0 c 0.981496,0 1.78125,0.79975 1.78125,1.78125 l 0,6.375 c 0,0.9815 -0.799754,1.78125 -1.78125,1.78125 l -2.84375,0 c -0.981496,0 -1.75,-0.79975 -1.75,-1.78125 l 0,-6.375 c 0,-0.9815 0.768504,-1.78125 1.75,-1.78125 z m 16.84375,0 2.84375,0 c 0.981496,0 1.75,0.79975 1.75,1.78125 l 0,6.375 c 0,0.9815 -0.768504,1.78125 -1.75,1.78125 l -2.84375,0 c -0.981496,0 -1.78125,-0.79975 -1.78125,-1.78125 l 0,-6.375 c 0,-0.9815 0.799754,-1.78125 1.78125,-1.78125 z m 16.84375,0 2.84375,0 c 0.981496,0 1.75,0.79975 1.75,1.78125 l 0,6.375 c 0,0.9815 -0.768504,1.78125 -1.75,1.78125 l -2.84375,0 c -0.981496,0 -1.78125,-0.79975 -1.78125,-1.78125 l 0,-6.375 c 0,-0.9815 0.799754,-1.78125 1.78125,-1.78125 z m 16.84375,0 2.8125,0 c 0.9815,0 1.78125,0.79975 1.78125,1.78125 l 0,6.375 c 0,0.9815 -0.79975,1.78125 -1.78125,1.78125 l -2.8125,0 c -0.9815,0 -1.78125,-0.79975 -1.78125,-1.78125 l 0,-6.375 c 0,-0.9815 0.79975,-1.78125 1.78125,-1.78125 z m 16.8125,0 2.84375,0 c 0.9815,0 1.78125,0.79975 1.78125,1.78125 l 0,6.375 c 0,0.9815 -0.79975,1.78125 -1.78125,1.78125 l -2.84375,0 c -0.9815,0 -1.75,-0.79975 -1.75,-1.78125 l 0,-6.375 c 0,-0.9815 0.7685,-1.78125 1.75,-1.78125 z m -121.28125,13.125 127.5625,0 0,85.03125 -127.5625,0 0,-85.03125 z m 2.875,88.93745 2.84375,0 c 0.981496,0 1.78125,0.7686 1.78125,1.75 l 0,6.375 c 0,0.9815 -0.799754,1.7813 -1.78125,1.7813 l -2.84375,0 c -0.9814961,0 -1.75,-0.7998 -1.75,-1.7813 l 0,-6.375 c 0,-0.9814 0.7685039,-1.75 1.75,-1.75 z m 16.84375,0 2.84375,0 c 0.981496,0 1.78125,0.7686 1.78125,1.75 l 0,6.375 c 0,0.9816 -0.799754,1.7813 -1.78125,1.7813 l -2.84375,0 c -0.981496,0 -1.75,-0.7997 -1.75,-1.7813 l 0,-6.375 c 0,-0.9813 0.768504,-1.75 1.75,-1.75 z m 16.84375,0 2.84375,0 c 0.981496,0 1.78125,0.7686 1.78125,1.75 l 0,6.375 c 0,0.9817 -0.799754,1.7813 -1.78125,1.7813 l -2.84375,0 c -0.981496,0 -1.78125,-0.7996 -1.78125,-1.7813 l 0,-6.375 c 0,-0.9812 0.799754,-1.75 1.78125,-1.75 z m 16.84375,0 2.84375,0 c 0.981496,0 1.75,0.7686 1.75,1.75 l 0,6.375 c 0,0.9818 -0.768504,1.7813 -1.75,1.7813 l -2.84375,0 c -0.981496,0 -1.78125,-0.7996 -1.78125,-1.7813 l 0,-6.375 c 0,-0.9811 0.799754,-1.75 1.78125,-1.75 z m 16.84375,0 2.8125,0 c 0.981496,0 1.78125,0.7686 1.78125,1.75 l 0,6.375 c 0,0.9819 -0.799754,1.7813 -1.78125,1.7813 l -2.8125,0 c -0.981496,0 -1.78125,-0.7996 -1.78125,-1.7813 l 0,-6.375 c 0,-0.981 0.799754,-1.75 1.78125,-1.75 z m 16.84375,0 2.8125,0 c 0.981496,0 1.78125,0.7686 1.78125,1.75 l 0,6.375 c 0,0.9819 -0.799754,1.7813 -1.78125,1.7813 l -2.8125,0 c -0.981496,0 -1.78125,-0.7996 -1.78125,-1.7813 l 0,-6.375 c 0,-0.9809 0.799754,-1.75 1.78125,-1.75 z m 16.8125,0 2.84375,0 c 0.9815,0 1.78125,0.7686 1.78125,1.75 l 0,6.375 c 0,0.9819 -0.79975,1.7813 -1.78125,1.7813 l -2.84375,0 c -0.9815,0 -1.75,-0.7996 -1.75,-1.7813 l 0,-6.375 c 0,-0.9808 0.7685,-1.75 1.75,-1.75 z m 16.84375,0 2.84375,0 c 0.9815,0 1.78125,0.7686 1.78125,1.75 l 0,6.375 c 0,0.9819 -0.79975,1.7813 -1.78125,1.7813 l -2.84375,0 c -0.9815,0 -1.78125,-0.7996 -1.78125,-1.7813 l 0,-6.375 c 0,-0.9807 0.79975,-1.75 1.78125,-1.75 z"/><rect style="fill:#ed9c00;fill-opacity:1;fill-rule:evenodd;stroke:none" id="rect28" width="6.378" height="9.921" x="81.119" y="906.551" rx="1.772" ry="1.772"/><text style="font-size:9px;font-style:normal;font-variant:normal;font-weight:400;font-stretch:normal;line-height:125%;letter-spacing:0;word-spacing:0;fill:#ed9c00;fill-opacity:1;stroke:none;font-family:Monospace;-inkscape-font-specification:Monospace" id="text3550" x="64.941" y="934.952" xml:space="preserve"><tspan id="tspan3552" x="64.941" y="934.952">1</tspan></text><text id="text3554" x="63.558" y="1051.445" xml:space="preserve" style="font-size:9px;font-style:normal;font-variant:normal;font-weight:400;font-stretch:normal;line-height:125%;letter-spacing:0;word-spacing:0;fill:#ed9c00;fill-opacity:1;stroke:none;font-family:Monospace;-inkscape-font-specification:Monospace"><tspan id="tspan3556" x="63.558" y="1051.445">1</tspan></text></g></svg>